<?xml version="1.0"?>
<svg xmlns:rdf="http://www.w3.org/1999/02/22-rdf-syntax-ns#" xmlns="http://www.w3.org/2000/svg" xmlns:cc="http://web.resource.org/cc/" xmlns:xlink="http://www.w3.org/1999/xlink" xmlns:dc="http://purl.org/dc/elements/1.1/" xmlns:svg="http://www.w3.org/2000/svg" id="svg4795" viewBox="0 0 132.74 78.995" version="1.0">
  <defs id="defs4797">
    <linearGradient id="linearGradient4275" y2="128.85" gradientUnits="userSpaceOnUse" x2="152.3" y1="167.89" x1="231.12">
      <stop id="stop4251" stop-color="#f500d5" offset="0"/>
      <stop id="stop4253" stop-color="#fff551" offset="1"/>
    </linearGradient>
  </defs>
  <g id="layer1" transform="translate(-245.06 -398.58)">
    <g id="g4227" transform="matrix(.82990 .18620 -.18620 .82990 199.59 269.05)">
      <path id="path4229" transform="matrix(.97574 -.21892 .21892 .97574 -31.803 41.268)" fill="#666" d="m152.06 174.72c-3.88-0.04-8.02 0.46-11 1.4l-42.81 13.6-4.562-0.06-0.157 2.87c-0.023 0.88 1.219 1.72 3.719 2.28l73.16 16.41c4.88 1.09 12.67 0.76 17.43-0.75l44-13.97c2.25-0.71 3.41-1.57 3.5-2.38 0.01-0.07 0.01-0.14 0-0.21l0.16-2.66-6.53-0.06-70.5-15.81c-1.83-0.42-4.08-0.64-6.41-0.66z"/>
      <path id="path4231" d="m152.88 87.281c-1.89-0.037-3.61 1.24-4.04 3.157l-10.06 44.902c-0.49 2.19 0.87 4.36 3.06 4.85l0.54 0.12c-4.47-0.29-9.74 0.18-13.32 1.31l-43.998 13.97c-4.766 1.52-4.691 3.63 0.188 4.72l73.19 16.41c4.88 1.09 12.64 0.76 17.4-0.75l44-13.97c3.58-1.13 4.43-2.6 2.57-3.72h0.06c2.19 0.49 4.35-0.87 4.84-3.06l10.07-44.91c0.49-2.19-0.88-4.35-3.07-4.84l-80.62-18.095c-0.28-0.061-0.55-0.088-0.81-0.094z" transform="matrix(.97574 -.21892 .21892 .97574 -13.034 69.551)" fill="#ccc"/>
      <rect id="rect4233" height="42.859" width="71.852" y="126.8" x="161.46" fill="url(#linearGradient4275)"/>
    </g>
  </g>
  <metadata>
    <rdf:RDF>
      <cc:Work>
        <dc:format>image/svg+xml</dc:format>
        <dc:type rdf:resource="http://purl.org/dc/dcmitype/StillImage"/>
        <cc:license rdf:resource="http://creativecommons.org/licenses/publicdomain/"/>
        <dc:publisher>
          <cc:Agent rdf:about="http://openclipart.org/">
            <dc:title>Openclipart</dc:title>
          </cc:Agent>
        </dc:publisher>
        <dc:title>laptop simple icon</dc:title>
        <dc:date>2007-09-11T06:23:50</dc:date>
        <dc:description>clip art, clipart, computer, computer, icon, icon, image, laptop, laptop, media, public domain, svg, </dc:description>
        <dc:source>http://openclipart.org/detail/5366/laptop-simple-icon-by-cmy</dc:source>
        <dc:creator>
          <cc:Agent>
            <dc:title>cmy</dc:title>
          </cc:Agent>
        </dc:creator>
        <dc:subject>
          <rdf:Bag>
            <rdf:li>clip art</rdf:li>
            <rdf:li>clipart</rdf:li>
            <rdf:li>computer</rdf:li>
            <rdf:li>icon</rdf:li>
            <rdf:li>image</rdf:li>
            <rdf:li>laptop</rdf:li>
            <rdf:li>media</rdf:li>
            <rdf:li>public domain</rdf:li>
            <rdf:li>svg</rdf:li>
          </rdf:Bag>
        </dc:subject>
      </cc:Work>
      <cc:License rdf:about="http://creativecommons.org/licenses/publicdomain/">
        <cc:permits rdf:resource="http://creativecommons.org/ns#Reproduction"/>
        <cc:permits rdf:resource="http://creativecommons.org/ns#Distribution"/>
        <cc:permits rdf:resource="http://creativecommons.org/ns#DerivativeWorks"/>
      </cc:License>
    </rdf:RDF>
  </metadata>
</svg>
